<?xml version="1.0"?>
<svg width="124" height="24" xmlns="http://www.w3.org/2000/svg" xmlns:svg="http://www.w3.org/2000/svg">
 <g class="layer">
  <title>Layer 1</title>
  <path d="m6.86,16.71c1.64,0 2.99,-0.36 4.07,-1.08c1.07,-0.72 1.61,-1.77 1.61,-3.15c-0.08,-1.85 -1.46,-3.24 -4.14,-4.17l-1.44,-0.6c-0.32,-0.1 -0.54,-0.19 -0.67,-0.29a0.45,0.45 0 0 1 -0.2,-0.38c0,-0.41 0.27,-0.62 0.82,-0.62c0.67,0 1.18,0.35 1.51,1.05l3.7,-1.05c-0.9,-2.22 -2.62,-3.33 -5.16,-3.33c-1.53,0 -2.79,0.4 -3.8,1.2c-1.01,0.79 -1.51,1.83 -1.51,3.1c0,0.4 0.05,0.77 0.17,1.11c0.12,0.34 0.29,0.63 0.52,0.89c0.23,0.26 0.46,0.48 0.67,0.67c0.21,0.19 0.49,0.37 0.82,0.54c0.33,0.16 0.58,0.28 0.76,0.36c0.17,0.07 0.41,0.16 0.7,0.26l0.42,0.15l1.5,0.54c0.36,0.13 0.59,0.25 0.7,0.34a0.45,0.45 0 0 1 0.16,0.36c0,0.43 -0.4,0.64 -1.21,0.64c-1.19,0 -1.91,-0.53 -2.14,-1.59l-3.72,0.85c0.46,2.8 2.42,4.2 5.86,4.2zm11.63,0c1.64,0 2.85,-0.63 3.63,-1.89l0,1.61l5.11,0l0,-13.06l-5.11,0l0,7.15c0,1.48 -0.51,2.21 -1.52,2.21c-1.02,0 -1.54,-0.73 -1.54,-2.21l0,-7.15l-5.11,0l0,7.65c0,3.79 1.51,5.69 4.54,5.69zm16.11,-0.28l0,-7.15c0,-1.48 0.5,-2.21 1.51,-2.21c1.03,0 1.54,0.73 1.54,2.21l0,7.15l5.11,0l0,-7.65c0,-3.79 -1.51,-5.69 -4.54,-5.69c-1.64,0 -2.85,0.63 -3.62,1.89l0,-1.61l-5.12,0l0,13.07l5.12,0l0,-0.01zm15.38,0l0,-7.15c0,-1.48 0.5,-2.21 1.51,-2.21c1.03,0 1.54,0.73 1.54,2.21l0,7.15l5.11,0l0,-7.65c0,-3.79 -1.51,-5.69 -4.54,-5.69c-1.64,0 -2.84,0.63 -3.62,1.89l0,-1.61l-5.11,0l0,13.07l5.11,0l0,-0.01zm15.98,5.57l8.29,-18.63l-5.34,0l-2.53,6.68l-2.26,-6.68l-5.58,0l5.43,11.8l-3.03,6.83l5.02,0zm13.67,-5.29c1.64,0 2.99,-0.36 4.07,-1.08c1.07,-0.72 1.61,-1.77 1.61,-3.15c-0.08,-1.85 -1.46,-3.24 -4.14,-4.17l-1.44,-0.6c-0.32,-0.1 -0.54,-0.19 -0.67,-0.29a0.45,0.45 0 0 1 -0.2,-0.38c0,-0.41 0.27,-0.62 0.82,-0.62c0.68,0 1.18,0.35 1.51,1.05l3.7,-1.05c-0.89,-2.22 -2.61,-3.33 -5.16,-3.33c-1.52,0 -2.79,0.4 -3.8,1.2c-1.01,0.79 -1.51,1.83 -1.51,3.1c0,0.4 0.06,0.77 0.17,1.11c0.12,0.34 0.29,0.63 0.52,0.89c0.23,0.26 0.46,0.48 0.67,0.67c0.22,0.19 0.49,0.37 0.82,0.54c0.33,0.16 0.58,0.28 0.76,0.36c0.17,0.07 0.41,0.16 0.71,0.26l0.42,0.15l1.49,0.54c0.36,0.14 0.6,0.25 0.7,0.34a0.45,0.45 0 0 1 0.16,0.36c0,0.43 -0.4,0.64 -1.21,0.64c-1.19,0 -1.9,-0.53 -2.14,-1.59l-3.72,0.85c0.47,2.8 2.42,4.2 5.86,4.2zm9.8,-14.14c0.91,0 1.61,-0.21 2.11,-0.65c0.49,-0.43 0.74,-0.97 0.74,-1.64c0,-0.67 -0.24,-1.23 -0.72,-1.65c-0.48,-0.42 -1.19,-0.63 -2.13,-0.63c-0.95,0 -1.66,0.21 -2.14,0.63c-0.48,0.43 -0.72,0.98 -0.72,1.66c0,0.66 0.25,1.21 0.75,1.64c0.49,0.43 1.2,0.64 2.11,0.64zm2.55,13.86l0,-13.06l-5.11,0l0,13.07l5.11,0l0,-0.01zm7.74,0.28c1.74,0 2.98,-0.63 3.73,-1.89l0,1.61l5.11,0l0,-17.96l-5.11,0l0,6.54c-0.75,-1.28 -1.99,-1.92 -3.73,-1.92c-1.75,0 -3.21,0.65 -4.38,1.93c-1.16,1.28 -1.75,2.91 -1.75,4.88c0,1.97 0.59,3.6 1.75,4.88c1.17,1.29 2.63,1.93 4.38,1.93zm1.39,-3.9c-0.73,0 -1.31,-0.28 -1.75,-0.82c-0.44,-0.55 -0.65,-1.25 -0.65,-2.09c0,-0.84 0.21,-1.54 0.64,-2.09c0.45,-0.54 1.03,-0.82 1.76,-0.82s1.31,0.28 1.75,0.82c0.44,0.55 0.66,1.25 0.66,2.09c0,0.84 -0.22,1.54 -0.66,2.09c-0.44,0.54 -1.02,0.82 -1.75,0.82zm16.7,3.9c2.6,0 4.63,-0.76 6.08,-2.26l-2.11,-2.83c-1.04,0.84 -2.22,1.26 -3.52,1.26c-0.99,0 -1.8,-0.22 -2.42,-0.67c-0.62,-0.45 -0.93,-0.88 -0.93,-1.29l9.6,0c0.08,-0.3 0.13,-0.69 0.13,-1.17c0,-2.05 -0.68,-3.67 -2.03,-4.87c-1.35,-1.19 -3.07,-1.79 -5.17,-1.79c-2.25,0 -4.03,0.67 -5.34,2.02c-1.3,1.34 -1.96,2.95 -1.96,4.84c0,1.94 0.69,3.55 2.07,4.83c1.39,1.29 3.25,1.93 5.6,1.93zm2.21,-8.15l-5.11,0c0.03,-0.61 0.3,-1.08 0.79,-1.41c0.5,-0.32 1.09,-0.48 1.76,-0.48c0.68,0 1.27,0.17 1.77,0.5c0.49,0.33 0.76,0.79 0.79,1.39z" fill="#007f00" fill-rule="nonzero" id="svg_1"/>
 </g>
</svg>